<?xml version="1.0"?>
<svg xmlns="http://www.w3.org/2000/svg" xmlns:xlink="http://www.w3.org/1999/xlink" viewBox="0 0 512 512" width="512" height="512"><linearGradient id="a" gradientUnits="userSpaceOnUse" x1="255.5" x2="255.5" y1="12" y2="490.602"><stop offset="0" stop-color="#00efd1"/><stop offset="1" stop-color="#00acea"/></linearGradient><linearGradient id="b" x1="209" x2="209" xlink:href="#a" y1="12" y2="490.602"/><linearGradient id="c" x1="169.5" x2="169.5" xlink:href="#a" y1="12" y2="490.602"/><path d="m412 121h-313a10 10 0 0 0 0 20h313a10 10 0 0 0 0-20z" fill="url(#a)"/><path d="m99 224h220a10 10 0 0 0 0-20h-220a10 10 0 0 0 0 20z" fill="url(#b)"/><path d="m412 288h-313a10 10 0 0 0 0 20h313a10 10 0 0 0 0-20z" fill="url(#a)"/><path d="m240 371h-141a10 10 0 0 0 0 20h141a10 10 0 0 0 0-20z" fill="url(#c)"/></svg>
