<?xml version="1.0"?>
<svg xmlns="http://www.w3.org/2000/svg" xmlns:xlink="http://www.w3.org/1999/xlink" viewBox="0 0 512 512" width="512" height="512"><linearGradient id="a" gradientUnits="userSpaceOnUse" x1="224.342" x2="224.342" y1="20.767" y2="486.781"><stop offset="0" stop-color="#00efd1"/><stop offset="1" stop-color="#00acea"/></linearGradient><linearGradient id="b" x1="256.001" x2="256.001" xlink:href="#a" y1="20.767" y2="486.781"/><path d="m331.651 117.04c-59.195-59.142-155.471-59.14-214.614 0s-59.144 155.418 0 214.617a151.98 151.98 0 0 0 214.621 0c59.142-59.199 59.135-155.475-.007-214.617zm-14.138 200.472c-51.4 51.349-134.991 51.351-186.334.006-51.351-51.4-51.352-134.988 0-186.336a131.953 131.953 0 0 1 186.333 0c51.344 51.348 51.343 134.938.001 186.33z" fill="url(#a)"/><path d="m383.559 331.225a191.775 191.775 0 1 0 -172.683 84.417q6.73.471 13.439.469a191.589 191.589 0 0 0 106.911-32.539l85 85a37.01 37.01 0 1 0 52.374-52.304zm-57.121 31.254-.049.037a171.879 171.879 0 1 1 35.888-35.828 170.358 170.358 0 0 1 -35.839 35.791zm128.021 91.987a16.935 16.935 0 0 1 -12.054 4.992 16.741 16.741 0 0 1 -12-4.992l-83.015-83.017c4.3-3.6 8.5-7.436 12.56-11.5s7.885-8.252 11.49-12.566l83.039 83.04a16.953 16.953 0 0 1 -.018 24.038z" fill="url(#b)"/></svg>
